<?xml version="1.0" encoding="UTF-8" standalone="no"?>
<svg
   xmlns:dc="http://purl.org/dc/elements/1.1/"
   xmlns:cc="http://creativecommons.org/ns#"
   xmlns:rdf="http://www.w3.org/1999/02/22-rdf-syntax-ns#"
   xmlns:svg="http://www.w3.org/2000/svg"
   xmlns="http://www.w3.org/2000/svg"
   version="1.1"
   id="svg4766"
   xml:space="preserve"
   width="352.77536"
   height="445.31198"
   viewBox="0 0 352.77537 445.31198"><metadata
     id="metadata4772"><rdf:RDF><cc:Work
         rdf:about=""><dc:format>image/svg+xml</dc:format><dc:type
           rdf:resource="http://purl.org/dc/dcmitype/StillImage" /><dc:title></dc:title></cc:Work></rdf:RDF></metadata><defs
     id="defs4770"><clipPath
       clipPathUnits="userSpaceOnUse"
       id="clipPath4782"><path
         d="M 0,673 H 1000 V 0 H 0 Z"
         id="path4780" /></clipPath></defs><g
     id="g4774"
     transform="matrix(1.3333333,0,0,-1.3333333,-490.45314,742.97838)"><g
       id="g4784"
       transform="translate(584.9485,385.5262)"><path
         d="m 0,0 c -5.795,15.77 -12.625,31.541 -19.23,46.792 -2.464,5.689 -4.997,11.537 -7.471,17.373 l -13.699,-7.699 -44.472,51.02 -44.503,-50.973 -13.704,7.587 c -2.15,-5.056 -4.311,-10.115 -6.473,-15.175 -6.286,-14.712 -12.784,-29.924 -18.928,-44.964 -5.98,-14.639 -7.854,-30.11 -5.572,-45.983 6.471,-44.998 43.95,-77.658 89.118,-77.658 4.2,0 8.468,0.288 12.688,0.855 26.865,3.607 50.423,19.195 64.633,42.764 C 6.43,-52.767 9.206,-25.044 0,0"
         style="fill:#f7b333;fill-opacity:1;fill-rule:nonzero;stroke:none"
         id="path4786" /></g><g
       id="g4788"
       transform="translate(514.1121,256.1979)"><path
         d="m 0,0 c -4.685,-0.629 -9.428,-0.948 -14.097,-0.948 -50.488,0 -92.38,36.482 -99.606,86.746 -2.555,17.764 -0.452,35.092 6.25,51.498 6.176,15.119 12.691,30.371 18.993,45.12 2.592,6.068 5.185,12.135 7.761,18.208 0.313,0.739 0.674,1.341 1.023,1.925 0.145,0.24 0.309,0.515 0.494,0.84 l 2.588,4.561 15.702,-8.693 46.863,53.676 46.789,-53.679 16.178,9.095 2.718,-5.577 c 0.235,-0.466 0.438,-0.878 0.614,-1.299 2.962,-7.06 6.061,-14.218 9.06,-21.142 6.663,-15.386 13.554,-31.297 19.453,-47.347 C 91.102,104.906 88.01,73.857 72.298,47.797 56.419,21.46 30.068,4.038 0,0 m 100.908,138.825 c -6.286,16.713 -13.449,33.479 -20.377,49.693 -2.992,7.002 -6.084,14.241 -9.072,21.393 -3.275,7.844 -6.592,15.672 -9.95,23.601 l -2.177,5.144 -22.089,-12.574 -51.303,58.832 -51.295,-58.809 -22.084,12.508 c -4.165,-9.833 -8.323,-19.667 -12.48,-29.503 -8.231,-19.471 -16.744,-39.608 -25.176,-59.39 -9.934,-23.306 -12.862,-46.022 -8.952,-69.446 6.006,-35.977 24.342,-63.896 54.503,-82.985 20.593,-13.034 42.605,-19.643 65.424,-19.641 26.099,0.001 51.91,8.957 74.642,25.9 40.641,30.288 58.002,88.444 40.386,135.277"
         style="fill:#f78f1e;fill-opacity:1;fill-rule:nonzero;stroke:none"
         id="path4790" /></g><g
       id="g4792"
       transform="translate(434.5679,253.4868)"><path
         d="m 0,0 c -30.161,19.089 -48.497,47.008 -54.503,82.985 -3.91,23.424 -0.981,46.14 8.952,69.446 8.433,19.782 16.945,39.919 25.176,59.39 4.158,9.836 8.315,19.67 12.48,29.503 l 22.084,-12.508 51.295,58.809 51.303,-58.832 22.09,12.574 2.176,-5.144 c 3.358,-7.929 6.675,-15.757 9.95,-23.601 2.988,-7.151 6.08,-14.391 9.072,-21.392 6.928,-16.215 14.091,-32.981 20.377,-49.694 C 198.068,94.704 180.707,36.547 140.067,6.259 117.334,-10.684 91.523,-19.64 65.425,-19.641 42.605,-19.643 20.593,-13.034 0,0 m 190.371,145.266 c -6.369,16.932 -13.579,33.808 -20.552,50.127 -2.983,6.981 -6.068,14.201 -9.038,21.314 -3.284,7.859 -6.605,15.703 -9.971,23.648 l -6.815,16.118 -24.919,-14.184 -53.592,61.458 -53.597,-61.45 -24.558,13.908 -2.425,-5.19 c -0.286,-0.613 -0.555,-1.176 -0.808,-1.705 -0.553,-1.156 -1.035,-2.171 -1.474,-3.204 -4.256,-10.05 -8.507,-20.104 -12.757,-30.158 -8.229,-19.466 -16.737,-39.595 -25.163,-59.363 -10.601,-24.87 -13.849,-50.22 -9.656,-75.344 6.523,-39.078 26.47,-69.424 59.286,-90.194 22.002,-13.926 46.585,-21.286 71.093,-21.284 28.396,10e-4 56.397,9.684 80.974,28.001 44.283,33.004 63.187,96.416 43.972,147.502"
         style="fill:#931a1f;fill-opacity:1;fill-rule:nonzero;stroke:none"
         id="path4794" /></g><g
       id="g4796"
       transform="translate(512.7021,266.7008)"><path
         d="m 0,0 c -4.219,-0.567 -8.488,-0.855 -12.688,-0.855 -45.167,0 -82.647,32.66 -89.118,77.658 -2.282,15.874 -0.407,31.345 5.572,45.983 6.144,15.04 12.643,30.253 18.929,44.965 2.161,5.06 4.323,10.118 6.472,15.174 l 13.705,-7.587 44.502,50.973 44.472,-51.019 13.699,7.698 c 2.475,-5.836 5.007,-11.684 7.471,-17.372 6.605,-15.252 13.436,-31.023 19.23,-46.793 C 81.452,93.781 78.676,66.058 64.633,42.764 50.423,19.195 26.865,3.607 0,0 m 82.193,122.481 c -5.899,16.05 -12.79,31.961 -19.454,47.347 -2.998,6.924 -6.097,14.082 -9.059,21.142 -0.176,0.421 -0.379,0.833 -0.614,1.299 l -2.718,5.577 -16.179,-9.095 -46.788,53.679 -46.864,-53.676 -15.701,8.693 -2.588,-4.561 c -0.185,-0.325 -0.349,-0.6 -0.494,-0.84 -0.349,-0.584 -0.71,-1.186 -1.023,-1.925 -2.576,-6.073 -5.169,-12.14 -7.761,-18.208 -6.302,-14.749 -12.817,-30.001 -18.993,-45.12 -6.702,-16.406 -8.805,-33.734 -6.25,-51.498 7.226,-50.264 49.118,-86.746 99.605,-86.746 4.67,0 9.413,0.319 14.098,0.948 30.068,4.038 56.419,21.46 72.298,47.797 15.712,26.06 18.804,57.109 8.485,85.187"
         style="fill:#931a1f;fill-opacity:1;fill-rule:nonzero;stroke:none"
         id="path4798" /></g><g
       id="g4800"
       transform="translate(463.9187,352.1768)"><path
         d="m 0,0 c -10.586,0 -19.173,8.578 -19.173,19.163 0,10.584 8.587,19.173 19.173,19.173 10.586,0 19.163,-8.589 19.163,-19.173 C 19.163,8.578 10.586,0 0,0 m 31.092,25.563 c 0,25.408 -20.599,46.005 -46.007,46.005 -25.41,0 -46.007,-20.597 -46.007,-46.005 0,-25.41 20.597,-46.007 46.007,-46.007 25.408,0 46.007,20.597 46.007,46.007"
         style="fill:#931a1f;fill-opacity:1;fill-rule:nonzero;stroke:none"
         id="path4802" /></g><g
       id="g4804"
       transform="translate(463.9187,352.1768)"><path
         d="m 0,0 c -10.586,0 -19.173,8.578 -19.173,19.163 0,10.584 8.587,19.173 19.173,19.173 10.586,0 19.163,-8.589 19.163,-19.173 C 19.163,8.578 10.586,0 0,0 Z m 31.092,25.563 c 0,25.408 -20.599,46.005 -46.007,46.005 -25.41,0 -46.007,-20.597 -46.007,-46.005 0,-25.41 20.597,-46.007 46.007,-46.007 25.408,0 46.007,20.597 46.007,46.007 z"
         style="fill:none;stroke:#931a1f;stroke-width:19;stroke-linecap:butt;stroke-linejoin:miter;stroke-miterlimit:10;stroke-dasharray:none;stroke-opacity:1"
         id="path4806" /></g><g
       id="g4808"
       transform="translate(536.3424,352.1768)"><path
         d="m 0,0 c -10.586,0 -19.163,8.578 -19.163,19.163 0,10.584 8.577,19.173 19.163,19.173 10.593,0 19.173,-8.589 19.173,-19.173 C 19.173,8.578 10.593,0 0,0 m 14.915,71.568 c -25.41,0 -46.007,-20.597 -46.007,-46.005 0,-25.41 20.597,-46.007 46.007,-46.007 25.408,0 46.008,20.597 46.008,46.007 0,25.408 -20.6,46.005 -46.008,46.005"
         style="fill:#931a1f;fill-opacity:1;fill-rule:nonzero;stroke:none"
         id="path4810" /></g><g
       id="g4812"
       transform="translate(536.3424,352.1768)"><path
         d="m 0,0 c -10.586,0 -19.163,8.578 -19.163,19.163 0,10.584 8.577,19.173 19.163,19.173 10.593,0 19.173,-8.589 19.173,-19.173 C 19.173,8.578 10.593,0 0,0 Z m 14.915,71.568 c -25.41,0 -46.007,-20.597 -46.007,-46.005 0,-25.41 20.597,-46.007 46.007,-46.007 25.408,0 46.008,20.597 46.008,46.007 0,25.408 -20.6,46.005 -46.008,46.005 z"
         style="fill:none;stroke:#931a1f;stroke-width:19;stroke-linecap:butt;stroke-linejoin:miter;stroke-miterlimit:10;stroke-dasharray:none;stroke-opacity:1"
         id="path4814" /></g><g
       id="g4816"
       transform="translate(463.9187,390.5126)"><path
         d="m 0,0 c -10.586,0 -19.173,-8.589 -19.173,-19.173 0,-10.585 8.587,-19.163 19.173,-19.163 10.586,0 19.163,8.578 19.163,19.163 C 19.163,-8.589 10.586,0 0,0"
         style="fill:#931a1f;fill-opacity:1;fill-rule:nonzero;stroke:none"
         id="path4818" /></g><g
       id="g4820"
       transform="translate(463.9187,390.5126)"><path
         d="m 0,0 c -10.586,0 -19.173,-8.589 -19.173,-19.173 0,-10.585 8.587,-19.163 19.173,-19.163 10.586,0 19.163,8.578 19.163,19.163 C 19.163,-8.589 10.586,0 0,0 Z"
         style="fill:none;stroke:#931a1f;stroke-width:19;stroke-linecap:butt;stroke-linejoin:miter;stroke-miterlimit:10;stroke-dasharray:none;stroke-opacity:1"
         id="path4822" /></g><g
       id="g4824"
       transform="translate(536.3424,390.5126)"><path
         d="m 0,0 c -10.586,0 -19.163,-8.589 -19.163,-19.173 0,-10.585 8.577,-19.163 19.163,-19.163 10.593,0 19.173,8.578 19.173,19.163 C 19.173,-8.589 10.593,0 0,0"
         style="fill:#931a1f;fill-opacity:1;fill-rule:nonzero;stroke:none"
         id="path4826" /></g><g
       id="g4828"
       transform="translate(536.3424,390.5126)"><path
         d="m 0,0 c -10.586,0 -19.163,-8.589 -19.163,-19.173 0,-10.585 8.577,-19.163 19.163,-19.163 10.593,0 19.173,8.578 19.173,19.163 C 19.173,-8.589 10.593,0 0,0 Z"
         style="fill:none;stroke:#931a1f;stroke-width:19;stroke-linecap:butt;stroke-linejoin:miter;stroke-miterlimit:10;stroke-dasharray:none;stroke-opacity:1"
         id="path4830" /></g><g
       id="g4832"
       transform="translate(463.9187,352.1768)"><path
         d="m 0,0 c -10.586,0 -19.173,8.578 -19.173,19.163 0,10.584 8.587,19.173 19.173,19.173 10.586,0 19.163,-8.589 19.163,-19.173 C 19.163,8.578 10.586,0 0,0 m 31.092,25.563 c 0,25.408 -20.599,46.005 -46.007,46.005 -25.41,0 -46.007,-20.597 -46.007,-46.005 0,-25.41 20.597,-46.007 46.007,-46.007 25.408,0 46.007,20.597 46.007,46.007"
         style="fill:#ffffff;fill-opacity:1;fill-rule:nonzero;stroke:none"
         id="path4834" /></g><g
       id="g4836"
       transform="translate(536.3424,352.1768)"><path
         d="m 0,0 c -10.586,0 -19.163,8.578 -19.163,19.163 0,10.584 8.577,19.173 19.163,19.173 10.593,0 19.173,-8.589 19.173,-19.173 C 19.173,8.578 10.593,0 0,0 m 14.915,71.568 c -25.41,0 -46.007,-20.597 -46.007,-46.005 0,-25.41 20.597,-46.007 46.007,-46.007 25.408,0 46.008,20.597 46.008,46.007 0,25.408 -20.6,46.005 -46.008,46.005"
         style="fill:#ffffff;fill-opacity:1;fill-rule:nonzero;stroke:none"
         id="path4838" /></g><g
       id="g4840"
       transform="translate(463.9187,390.5126)"><path
         d="m 0,0 c -10.586,0 -19.173,-8.589 -19.173,-19.173 0,-10.585 8.587,-19.163 19.173,-19.163 10.586,0 19.163,8.578 19.163,19.163 C 19.163,-8.589 10.586,0 0,0"
         style="fill:#931a1f;fill-opacity:1;fill-rule:nonzero;stroke:none"
         id="path4842" /></g><g
       id="g4844"
       transform="translate(536.3424,390.5126)"><path
         d="m 0,0 c -10.586,0 -19.163,-8.589 -19.163,-19.173 0,-10.585 8.577,-19.163 19.163,-19.163 10.593,0 19.173,8.578 19.173,19.163 C 19.173,-8.589 10.593,0 0,0"
         style="fill:#931a1f;fill-opacity:1;fill-rule:nonzero;stroke:none"
         id="path4846" /></g><g
       id="g4848"
       transform="translate(477.0644,294.9447)"><path
         d="M 0,0 C 13.213,-12.445 32.909,-12.445 46.121,0 51.41,4.981 43.443,12.919 38.169,7.952 29.477,-0.235 16.644,-0.235 7.952,7.952 2.679,12.919 -5.289,4.981 0,0"
         style="fill:#931a1f;fill-opacity:1;fill-rule:nonzero;stroke:none"
         id="path4850" /></g></g></svg>